Coordinates
version=1
nRows=4
nColumns=63
inDegrees=yes

Units are S.I. units (second, meters, Newtons, ...)
If the header above contains a line with 'inDegrees', this indicates whether rotational values are in degrees (yes) or radians (no).

endheader
time	pelvis_tilt	pelvis_list	pelvis_rotation	pelvis_tx	pelvis_ty	pelvis_tz	hip_flexion_r	hip_adduction_r	hip_rotation_r	knee_angle_r	knee_angle_r_beta	ankle_angle_r	subtalar_angle_r	mtp_angle_r	hip_flexion_l	hip_adduction_l	hip_rotation_l	knee_angle_l	knee_angle_l_beta	ankle_angle_l	subtalar_angle_l	mtp_angle_l	L5_S1_Flex_Ext	L5_S1_Lat_Bending	L5_S1_axial_rotation	L4_L5_Flex_Ext	L4_L5_Lat_Bending	L4_L5_axial_rotation	L3_L4_Flex_Ext	L3_L4_Lat_Bending	L3_L4_axial_rotation	L2_L3_Flex_Ext	L2_L3_Lat_Bending	L2_L3_axial_rotation	L1_L2_Flex_Ext	L1_L2_Lat_Bending	L1_L2_axial_rotation	L1_T12_Flex_Ext	L1_T12_Lat_Bending	L1_T12_axial_rotation	Abs_r3	Abs_r2	Abs_r1	Abs_t1	Abs_t2	neck_flexion	neck_bending	neck_rotation	arm_flex_r	arm_add_r	arm_rot_r	elbow_flex_r	pro_sup_r	wrist_flex_r	wrist_dev_r	arm_flex_l	arm_add_l	arm_rot_l	elbow_flex_l	pro_sup_l	wrist_flex_l	wrist_dev_l
      0.00000000	      2.93020306	     -5.55869975	     89.36273750	      0.20074017	      0.96412088	      0.59474067	      2.24734477	     -1.67140429	     -7.96922679	      5.45745544	      0.09525057	     24.16505805	     17.05399230	      0.00000000	      4.34211006	      0.32733843	     -8.13719172	      7.64310044	      0.13339727	     24.89022152	     11.74697344	      0.00000000	     -0.07033248	     -0.06786006	     -1.89497582	     -0.13061446	     -0.09025388	     -2.01341181	     -0.11554924	     -0.16499495	     -2.01341181	     -0.08038300	     -0.16499495	     -1.65810385	     -0.06531075	     -0.13838024	     -1.53966786	     -0.04018798	     -0.10511524	     -1.42123187	     -0.50237791	     -0.76764659	    -10.53928704	      0.00000000	      0.00000000	     16.09284970	      6.21406323	     11.50732691	     12.58346871	     -7.30413424	     49.20827845	     44.14613533	     68.34760955	     -9.29256987	     -2.94948094	      3.44557621	    -12.77623382	     40.87770992	     41.44313858	     61.88298924	      4.54610337	     11.58198245
      0.02222222	      3.85035664	     -5.40682433	     90.49209985	      0.19992334	      0.96527692	      0.59239414	      1.60583929	     -0.55860091	     -7.42093005	      4.59261477	      0.08015625	     24.20856045	     15.65092868	      0.00000000	      4.00582179	     -0.52150473	     -6.24204001	      7.39795480	      0.12911867	     24.96614663	     11.49618940	      0.00000000	     -0.01178485	      0.05076837	     -2.10010567	     -0.02188565	      0.06752193	     -2.23136228	     -0.01936133	      0.12343821	     -2.23136228	     -0.01346891	      0.12343821	     -1.83759246	     -0.01094341	      0.10352686	     -1.70633586	     -0.00673386	      0.07864020	     -1.57507926	     -0.08417801	      0.57430194	    -11.68015773	      0.00000000	      0.00000000	     14.36446129	      5.84438511	     12.69643384	     13.34564139	     -7.68138335	     55.33668266	     43.43343132	     68.92429353	     -2.26826161	      3.51576377	      3.47821111	    -12.25092183	     42.27702706	     41.79055214	     58.87324475	      8.73682114	      8.34984992
      0.04444444	      4.61848933	     -5.28358379	     91.47513113	      0.19891101	      0.96576517	      0.59088495	      1.15657280	      0.34612776	     -6.81332500	      3.95034548	      0.06894654	     24.17083125	     14.16607156	      0.00000000	      3.81382491	     -1.21514113	     -4.53466666	      7.24288725	      0.12641223	     25.16728290	     10.86703113	      0.00000000	      0.02229320	      0.15502179	     -2.25093672	      0.04140070	      0.20617899	     -2.39162026	      0.03662550	      0.37691999	     -2.39162026	      0.02547890	      0.37691999	     -1.96956963	      0.02070146	      0.31612044	     -1.82888608	      0.01273833	      0.24012876	     -1.68820254	      0.15923809	      1.75363753	    -12.51903475	      0.00000000	      0.00000000	     13.74062676	      5.18653333	     13.50210336	     14.01025633	     -7.65388666	     59.67262458	     43.07647103	     68.70954515	      3.03392951	      7.27922508	      3.87115237	    -11.85787735	     43.91092820	     42.57658149	     57.40218344	     11.16688060	      5.24277121
      0.06666667	      5.08635085	     -5.28443892	     91.85670354	      0.19904469	      0.96573935	      0.58967289	      1.04463297	      0.89518268	     -6.69483563	      3.68192448	      0.06426170	     24.32711657	     13.92243974	      0.00000000	      3.69358922	     -1.69502873	     -4.14544657	      7.03520120	      0.12278742	     25.41220736	     10.85856841	      0.00000000	      0.06225170	      0.20965243	     -2.24056806	      0.11560762	      0.27883773	     -2.38060357	      0.10227331	      0.50974891	     -2.38060357	      0.07114746	      0.50974891	     -1.96049706	      0.05780692	      0.42752323	     -1.82046155	      0.03557062	      0.32475161	     -1.68042605	      0.44465763	      2.37163017	    -12.46136740	      0.00000000	      0.00000000	     13.64490116	      4.77611441	     13.36347201	     13.73382320	     -7.56683229	     61.46981226	     43.69907194	     68.89475830	      4.49807066	      8.21256879	      4.18888672	    -11.80400346	     44.69743976	     44.48130880	     57.71604962	     11.80521962	      4.78765611
